<svg xmlns="http://www.w3.org/2000/svg" xmlns:xlink="http://www.w3.org/1999/xlink" version="1.1" width="664" height="867"><g><g transform="translate(601,14)"><polygon fill="#000000" points="0,0 4.2,11.2 11.8,2" transform="translate(-5.9,27.3)"/>
<rect fill="none" width="1" height="1" transform="translate(33.3,-0.5)"/>
<g><g>
<rect x="0" y="0" width="28.3" height="28.3" opacity="0"/>
<path fill="none" stroke="#000000" stroke-width="1" d="M28.3,0C16.7,2.2,7,13.4,0,28.3"/>
</g></g><rect stroke="none" stroke-width="0" fill="#FFFFFF" x="0" y="0" width="0" height="0"/><path stroke="#000000" fill="none"/><text font-family="OpenSansCondensedLight" font-size="14pt" fill="black" transform="translate(0,0)"/><rect stroke-width="0" fill="none" width="1" height="1" transform="translate(33.3,-0.5)"/><text font-family="OpenSansCondensedLight" font-size="14pt" fill="black" text-decoration="none" transform="translate(33.3,-0.5)"><tspan x="0" y="6.8">200</tspan></text><path stroke="#000000" fill="none" transform="translate(33.3,-0.5)"/></g><g transform="translate(73,242)"><g><g>
<path d="M511,0H0v94h511V0L511,0z" stroke="#000000" stroke-dasharray="none" fill="#FFFFFF"/>
<rect x="22.4" y="4.3" width="466.3" height="85.4" fill="none"/>
<circle fill="none" cx="255.5" cy="0" r="0.1"/>
<circle fill="none" cx="382.1" cy="0" r="0.1"/>
<circle fill="none" cx="511" cy="23.7" r="0.1"/>
<circle fill="none" cx="511" cy="47" r="0.1"/>
<circle fill="none" cx="511" cy="70.3" r="0.1"/>
<circle fill="none" cx="382.1" cy="94" r="0.1"/>
<circle fill="none" cx="255.5" cy="94" r="0.1"/>
<circle fill="none" cx="128.9" cy="94" r="0.1"/>
<circle fill="none" cx="0" cy="70.3" r="0.1"/>
<circle fill="none" cx="0" cy="47" r="0.1"/>
<circle fill="none" cx="0" cy="23.7" r="0.1"/>
<circle fill="none" cx="128.9" cy="0" r="0.1"/>
</g></g><rect stroke="none" stroke-width="0" fill="#FFFFFF" x="0" y="0" width="0" height="0" transform="translate(382,-0.1)"/><path stroke="#000000" fill="none" d=""/><text font-family="OpenSansCondensedLight" font-size="14pt" fill="black" transform="translate(382,-0.1)"/><rect stroke-width="0" fill="none" width="466.3" height="85.4" transform="translate(22.4,4.3)"/><text font-family="OpenSansCondensedLight" font-size="14pt" fill="black" transform="translate(22.4,4.3)" text-anchor="middle"><tspan x="233.2" y="49">VIRTUAL ENVIRONMENT 202</tspan></text><path stroke="#000000" fill="none" transform="translate(22.4,4.3)" d="M 332.6 51 360.6 51"/></g><g transform="translate(75,556)"><g><g>
<path d="M511,0H0v97h511V0L511,0z" stroke="#000000" stroke-dasharray="none" fill="#FFFFFF"/>
<rect x="22.4" y="4.4" width="466.3" height="88.2" fill="none"/>
<circle fill="none" cx="255.5" cy="0" r="0.1"/>
<circle fill="none" cx="382.1" cy="0" r="0.1"/>
<circle fill="none" cx="511" cy="24.5" r="0.1"/>
<circle fill="none" cx="511" cy="48.5" r="0.1"/>
<circle fill="none" cx="511" cy="72.5" r="0.1"/>
<circle fill="none" cx="382.1" cy="97" r="0.1"/>
<circle fill="none" cx="255.5" cy="97" r="0.1"/>
<circle fill="none" cx="128.9" cy="97" r="0.1"/>
<circle fill="none" cx="0" cy="72.5" r="0.1"/>
<circle fill="none" cx="0" cy="48.5" r="0.1"/>
<circle fill="none" cx="0" cy="24.5" r="0.1"/>
<circle fill="none" cx="128.9" cy="0" r="0.1"/>
</g></g><rect stroke="none" stroke-width="0" fill="#FFFFFF" x="0" y="0" width="0" height="0" transform="translate(510.9,24.4)"/><path stroke="#000000" fill="none" d=""/><text font-family="OpenSansCondensedLight" font-size="14pt" fill="black" transform="translate(510.9,24.4)"/><rect stroke-width="0" fill="none" width="466.3" height="88.2" transform="translate(22.4,4.4)"/><text font-family="OpenSansCondensedLight" font-size="14pt" fill="black" transform="translate(22.4,4.4)" text-anchor="middle"><tspan x="233.2" y="50.4">OPERATING SYSTEM 204</tspan></text><path stroke="#000000" fill="none" transform="translate(22.4,4.4)" d="M 312.5 52 340.5 52"/></g><g transform="translate(68,399)"><g><g>
<path d="M188,0H0v91h188V0L188,0z" stroke="#000000" stroke-dasharray="none" fill="#FFFFFF"/>
<rect x="8.2" y="4.1" width="171.6" height="82.7" fill="none"/>
<circle fill="none" cx="94" cy="0" r="0.1"/>
<circle fill="none" cx="140.6" cy="0" r="0.1"/>
<circle fill="none" cx="188" cy="22.9" r="0.1"/>
<circle fill="none" cx="188" cy="45.5" r="0.1"/>
<circle fill="none" cx="188" cy="68.1" r="0.1"/>
<circle fill="none" cx="140.6" cy="91" r="0.1"/>
<circle fill="none" cx="94" cy="91" r="0.1"/>
<circle fill="none" cx="47.4" cy="91" r="0.1"/>
<circle fill="none" cx="0" cy="68.1" r="0.1"/>
<circle fill="none" cx="0" cy="45.5" r="0.1"/>
<circle fill="none" cx="0" cy="22.9" r="0.1"/>
<circle fill="none" cx="47.4" cy="0" r="0.1"/>
</g></g><rect stroke="none" stroke-width="0" fill="#FFFFFF" x="0" y="0" width="0" height="0" transform="translate(140.5,-0.1)"/><path stroke="#000000" fill="none" d=""/><text font-family="OpenSansCondensedLight" font-size="14pt" fill="black" transform="translate(140.5,-0.1)"/><rect stroke-width="0" fill="none" width="171.6" height="82.7" transform="translate(8.2,4.1)"/><text font-family="OpenSansCondensedLight" font-size="14pt" fill="black" transform="translate(8.2,4.1)" text-anchor="middle"><tspan x="85.8" y="37.2">VIRTUAL OBJECT</tspan><tspan x="85.8" y="58.2">206</tspan></text><path stroke="#000000" fill="none" transform="translate(8.2,4.1)" d="M 71.8 60 99.8 60"/></g><g transform="translate(72.5,730.5)"><g><g>
<path d="M512,0H0v102h512V0L512,0z" stroke="#000000" stroke-dasharray="none" fill="#FFFFFF"/>
<rect x="22.4" y="4.7" width="467.2" height="92.7" fill="none"/>
<circle fill="none" cx="256" cy="0" r="0.1"/>
<circle fill="none" cx="382.9" cy="0" r="0.1"/>
<circle fill="none" cx="512" cy="25.7" r="0.1"/>
<circle fill="none" cx="512" cy="51" r="0.1"/>
<circle fill="none" cx="512" cy="76.3" r="0.1"/>
<circle fill="none" cx="382.9" cy="102" r="0.1"/>
<circle fill="none" cx="256" cy="102" r="0.1"/>
<circle fill="none" cx="129.2" cy="102" r="0.1"/>
<circle fill="none" cx="0" cy="76.3" r="0.1"/>
<circle fill="none" cx="0" cy="51" r="0.1"/>
<circle fill="none" cx="0" cy="25.7" r="0.1"/>
<circle fill="none" cx="129.2" cy="0" r="0.1"/>
</g></g><rect stroke="none" stroke-width="0" fill="#FFFFFF" x="0" y="0" width="0" height="0" transform="translate(511.9,25.6)"/><path stroke="#000000" fill="none" d=""/><text font-family="OpenSansCondensedLight" font-size="14pt" fill="black" transform="translate(511.9,25.6)"/><rect stroke-width="0" fill="none" width="467.2" height="92.7" transform="translate(22.4,4.7)"/><text font-family="OpenSansCondensedLight" font-size="14pt" fill="black" transform="translate(22.4,4.7)" text-anchor="middle"><tspan x="233.6" y="52.6">HARDWARE 208</tspan></text><path stroke="#000000" fill="none" transform="translate(22.4,4.7)" d="M 274.8 55 302.8 55"/></g><g transform="translate(266,399)"><g><g>
<path d="M132,0H0v91h132V0L132,0z" stroke="#000000" stroke-dasharray="none" fill="#FFFFFF"/>
<rect x="5.8" y="4.1" width="120.5" height="82.7" fill="none"/>
<circle fill="none" cx="66" cy="0" r="0.1"/>
<circle fill="none" cx="98.7" cy="0" r="0.1"/>
<circle fill="none" cx="132" cy="22.9" r="0.1"/>
<circle fill="none" cx="132" cy="45.5" r="0.1"/>
<circle fill="none" cx="132" cy="68.1" r="0.1"/>
<circle fill="none" cx="98.7" cy="91" r="0.1"/>
<circle fill="none" cx="66" cy="91" r="0.1"/>
<circle fill="none" cx="33.3" cy="91" r="0.1"/>
<circle fill="none" cx="0" cy="68.1" r="0.1"/>
<circle fill="none" cx="0" cy="45.5" r="0.1"/>
<circle fill="none" cx="0" cy="22.9" r="0.1"/>
<circle fill="none" cx="33.3" cy="0" r="0.1"/>
</g></g><rect stroke="none" stroke-width="0" fill="#FFFFFF" x="0" y="0" width="0" height="0" transform="translate(98.6,-0.1)"/><path stroke="#000000" fill="none" d=""/><text font-family="OpenSansCondensedLight" font-size="14pt" fill="black" transform="translate(98.6,-0.1)"/><rect stroke-width="0" fill="none" width="120.5" height="82.7" transform="translate(5.8,4.1)"/><text font-family="OpenSansCondensedLight" font-size="14pt" fill="black" transform="translate(5.8,4.1)" text-anchor="middle"><tspan x="60.2" y="26.7">VIRTUAL</tspan><tspan x="60.2" y="47.7">SURFACE</tspan><tspan x="60.2" y="68.7">210</tspan></text><path stroke="#000000" fill="none" transform="translate(5.8,4.1)" d="M 46.2 71 74.2 71"/></g><g transform="translate(410,399)"><g><g>
<path d="M168,0H0v91h168V0L168,0z" stroke="#000000" stroke-dasharray="none" fill="#FFFFFF"/>
<rect x="7.3" y="4.1" width="153.3" height="82.7" fill="none"/>
<circle fill="none" cx="84" cy="0" r="0.1"/>
<circle fill="none" cx="125.6" cy="0" r="0.1"/>
<circle fill="none" cx="168" cy="22.9" r="0.1"/>
<circle fill="none" cx="168" cy="45.5" r="0.1"/>
<circle fill="none" cx="168" cy="68.1" r="0.1"/>
<circle fill="none" cx="125.6" cy="91" r="0.1"/>
<circle fill="none" cx="84" cy="91" r="0.1"/>
<circle fill="none" cx="42.4" cy="91" r="0.1"/>
<circle fill="none" cx="0" cy="68.1" r="0.1"/>
<circle fill="none" cx="0" cy="45.5" r="0.1"/>
<circle fill="none" cx="0" cy="22.9" r="0.1"/>
<circle fill="none" cx="42.4" cy="0" r="0.1"/>
</g></g><rect stroke="none" stroke-width="0" fill="#FFFFFF" x="0" y="0" width="0" height="0" transform="translate(125.5,-0.1)"/><path stroke="#000000" fill="none" d=""/><text font-family="OpenSansCondensedLight" font-size="14pt" fill="black" transform="translate(125.5,-0.1)"/><rect stroke-width="0" fill="none" width="153.3" height="82.7" transform="translate(7.3,4.1)"/><text font-family="OpenSansCondensedLight" font-size="14pt" fill="black" transform="translate(7.3,4.1)" text-anchor="middle"><tspan x="76.7" y="37.2">APPLICATION</tspan><tspan x="76.7" y="58.2">212</tspan></text><path stroke="#000000" fill="none" transform="translate(7.3,4.1)" d="M 62.7 60 90.7 60"/></g><g><path stroke="black" stroke-dasharray="none" d="M 330 722 330 661" fill="none"/><path fill="black" stroke="black" d="M 8 0 L 0 4 L 8 8 z" transform="translate(326,730) scale(1,1) rotate(-90)"/><path fill="black" stroke="black" d="M 8 0 L 0 4 L 8 8 z" transform="translate(334,653) scale(1,1) rotate(-270)"/><g><g label-idx="0" cursor="move" transform="translate(330, 691.5)"><rect fill="white" rx="3" ry="3" x="-58.8" y="-13.1" width="117.7" height="22"/><text text-anchor="start" font-size="14pt" font-family="OpenSansCondensedLight" y="0.8em" display="null" xml:space="preserve" transform="translate(0,-11)"><tspan x="-49.5" y="0.8em">OS ACTION</tspan></text></g></g></g><g><path stroke="black" stroke-dasharray="none" d="M 452 548 452 498" fill="none"/><path fill="black" stroke="black" d="M 8 0 L 0 4 L 8 8 z" transform="translate(448,556) scale(1,1) rotate(-90)"/><path fill="black" stroke="black" d="M 8 0 L 0 4 L 8 8 z" transform="translate(456,490) scale(1,1) rotate(-270)"/><g><g label-idx="0" cursor="move" transform="translate(452, 523)"><rect fill="white" rx="3" ry="3" x="-44.6" y="-13.1" width="89.1" height="22"/><text text-anchor="start" font-size="14pt" font-family="OpenSansCondensedLight" y="0.8em" display="null" xml:space="preserve" transform="translate(0,-11)"><tspan x="-35.2" y="0.8em">ACTION</tspan></text></g></g></g><g><path stroke="black" stroke-dasharray="none" d="M 332 548 332 498" fill="none"/><path fill="black" stroke="black" d="M 8 0 L 0 4 L 8 8 z" transform="translate(328,556) scale(1,1) rotate(-90)"/><path fill="black" stroke="black" d="M 8 0 L 0 4 L 8 8 z" transform="translate(336,490) scale(1,1) rotate(-270)"/><g><g label-idx="0" cursor="move" transform="translate(332, 523)"><rect fill="white" rx="3" ry="3" x="-44.6" y="-13.1" width="89.1" height="22"/><text text-anchor="start" font-size="14pt" font-family="OpenSansCondensedLight" y="0.8em" display="null" xml:space="preserve" transform="translate(0,-11)"><tspan x="-35.2" y="0.8em">ACTION</tspan></text></g></g></g><g><path stroke="black" stroke-dasharray="none" d="M 209 548 209 498" fill="none"/><path fill="black" stroke="black" d="M 8 0 L 0 4 L 8 8 z" transform="translate(205,556) scale(1,1) rotate(-90)"/><path fill="black" stroke="black" d="M 8 0 L 0 4 L 8 8 z" transform="translate(213,490) scale(1,1) rotate(-270)"/><g><g label-idx="0" cursor="move" transform="translate(209, 523)"><rect fill="white" rx="3" ry="3" x="-44.6" y="-13.1" width="89.1" height="22"/><text text-anchor="start" font-size="14pt" font-family="OpenSansCondensedLight" y="0.8em" display="null" xml:space="preserve" transform="translate(0,-11)"><tspan x="-35.2" y="0.8em">ACTION</tspan></text></g></g></g><g><path stroke="black" stroke-dasharray="none" d="M 328 391 328 344" fill="none"/><path fill="black" stroke="black" d="M 8 0 L 0 4 L 8 8 z" transform="translate(324,399) scale(1,1) rotate(-90)"/><path fill="black" stroke="black" d="M 8 0 L 0 4 L 8 8 z" transform="translate(332,336) scale(1,1) rotate(-270)"/><g><g label-idx="0" cursor="move" transform="translate(328, 367.5)"><rect fill="white" rx="3" ry="3" x="-72" y="-13.1" width="144.1" height="22"/><text text-anchor="start" font-size="14pt" font-family="OpenSansCondensedLight" y="0.8em" display="null" xml:space="preserve" transform="translate(0,-11)"><tspan x="-62.7" y="0.8em">INTERACTION</tspan></text></g></g></g><g><path stroke="black" stroke-dasharray="none" d="M 455 391 455 344" fill="none"/><path fill="black" stroke="black" d="M 8 0 L 0 4 L 8 8 z" transform="translate(451,399) scale(1,1) rotate(-90)"/><path fill="black" stroke="black" d="M 8 0 L 0 4 L 8 8 z" transform="translate(459,336) scale(1,1) rotate(-270)"/><g><g label-idx="0" cursor="move" transform="translate(455, 367.5)"><rect fill="white" rx="3" ry="3" x="-72" y="-13.1" width="144.1" height="22"/><text text-anchor="start" font-size="14pt" font-family="OpenSansCondensedLight" y="0.8em" display="null" xml:space="preserve" transform="translate(0,-11)"><tspan x="-62.7" y="0.8em">INTERACTION</tspan></text></g></g></g><g><path stroke="black" stroke-dasharray="none" d="M 202 389 202 344" fill="none"/><path fill="black" stroke="black" d="M 8 0 L 0 4 L 8 8 z" transform="translate(198,397) scale(1,1) rotate(-90)"/><path fill="black" stroke="black" d="M 8 0 L 0 4 L 8 8 z" transform="translate(206,336) scale(1,1) rotate(-270)"/><g><g label-idx="0" cursor="move" transform="translate(202, 366.5)"><rect fill="white" rx="3" ry="3" x="-72" y="-13.1" width="144.1" height="22"/><text text-anchor="start" font-size="14pt" font-family="OpenSansCondensedLight" y="0.8em" display="null" xml:space="preserve" transform="translate(0,-11)"><tspan x="-62.7" y="0.8em">INTERACTION</tspan></text></g></g></g><g transform="translate(307.4,52.3)"><g><g>
<g stroke="#000000" stroke-dasharray="none" fill="#FFFFFF">
    <g>
        <g>
            <path d="M9.3,108.5C9.3,111.7,10.8,113.4,14,113.4s4.7,-1.7,4.7,-4.8V64.2h4.8v44.2c0,3.2,1.5,4.8,4.7,4.8s4.7,-1.7,4.7,-4.8V34h2.3v27.5c0,1.7,0.5,2.8,1.7,3.7s2.3,0.8,3.5,0s1.8,-2,1.8,-3.7V33c0,-3.2,-1,-5.8,-3.2,-7.8s-5,-3,-8.7,-3H11.8c-3.5,0,-6.3,1,-8.5,3S0,29.7,0,32.8V61.7c0,1.5,0.7,2.5,1.8,3.2s2.3,0.7,3.5,0s1.7,-1.7,1.7,-3.2V34h2.3V108.5L9.3,108.5z"/>
        </g>
        <path d="M11,9.7c0,2.7,1,5,2.8,6.8s4.2,2.8,6.8,2.8s4.8,-1,6.7,-2.8s2.7,-4.2,2.7,-6.8s-0.8,-5,-2.7,-6.8S23.3,0,20.6,0s-5,1,-6.8,2.8S11,7,11,9.7L11,9.7z"/>
    </g>
</g>
<g>
    <g>
        <path d="M9.3,108.5C9.3,111.7,10.8,113.4,14,113.4s4.7,-1.7,4.7,-4.8V64.2h4.8v44.2c0,3.2,1.5,4.8,4.7,4.8s4.7,-1.7,4.7,-4.8V34h2.3v27.5c0,1.7,0.5,2.8,1.7,3.7s2.3,0.8,3.5,0s1.8,-2,1.8,-3.7V33c0,-3.2,-1,-5.8,-3.2,-7.8s-5,-3,-8.7,-3H11.8c-3.5,0,-6.3,1,-8.5,3S0,29.7,0,32.8V61.7c0,1.5,0.7,2.5,1.8,3.2s2.3,0.7,3.5,0s1.7,-1.7,1.7,-3.2V34h2.3V108.5L9.3,108.5z"/>
    </g>
    <path d="M11,9.7c0,2.7,1,5,2.8,6.8s4.2,2.8,6.8,2.8s4.8,-1,6.7,-2.8s2.7,-4.2,2.7,-6.8s-0.8,-5,-2.7,-6.8S23.3,0,20.6,0s-5,1,-6.8,2.8S11,7,11,9.7L11,9.7z"/>
</g>
<rect x="1.6" y="37.7" fill="none" width="39" height="36.3"/>
<circle fill="none" cx="20.6" cy="0" r="0.1"/>
<circle fill="none" cx="30.1" cy="9.7" r="0.1"/>
<circle fill="none" cx="42.1" cy="34.2" r="0.1"/>
<circle fill="none" cx="42.2" cy="54" r="0.1"/>
<circle fill="none" cx="32.8" cy="72.4" r="0.1"/>
<circle fill="none" cx="32.9" cy="99" r="0.1"/>
<circle fill="none" cx="28.5" cy="113.4" r="0.1"/>
<circle fill="none" cx="9.3" cy="98.9" r="0.1"/>
<circle fill="none" cx="9.2" cy="72.5" r="0.1"/>
<circle fill="none" cx="0" cy="53.9" r="0.1"/>
<circle fill="none" cx="0" cy="34" r="0.1"/>
<circle fill="none" cx="11" cy="9.6" r="0.1"/>
</g></g><rect stroke="none" stroke-width="0" fill="#FFFFFF" x="0" y="0" width="0" height="0" transform="translate(42.1,53.9)"/><path stroke="#000000" fill="none" d=""/><text font-family="OpenSansCondensedLight" font-size="14pt" fill="black" transform="translate(42.1,53.9)"/><rect stroke-width="0" fill="none" width="127.2" transform="translate(-42.5,-10.1)"/><text font-family="OpenSansCondensedLight" font-size="14pt" fill="black" transform="translate(-42.5,-10.1)" text-anchor="middle"><tspan x="63.6" y="-4.2">USER 214</tspan></text><path stroke="#000000" fill="none" transform="translate(-42.5,-10.1)" d="M 75.8 -2 103.8 -2"/></g><g><path stroke="black" stroke-dasharray="none" d="M 336 229 336 166" fill="none"/><path fill="black" stroke="black" d="M 8 0 L 0 4 L 8 8 z" transform="translate(332,237) scale(1,1) rotate(-90)"/><path fill="black" stroke="black" d="" transform="translate(336,166) scale(1,1) rotate(-270)"/><g><g label-idx="0" cursor="move" transform="translate(336, 197.5)"><rect fill="white" rx="3" ry="3" x="-36.8" y="-13.1" width="73.6" height="22"/><text text-anchor="start" font-size="14pt" font-family="OpenSansCondensedLight" y="0.8em" display="null" xml:space="preserve" transform="translate(0,-11)"><tspan x="-27.5" y="0.8em">INPUT</tspan></text></g></g></g></g><defs/></svg>