<svg xmlns="http://www.w3.org/2000/svg" xmlns:xlink="http://www.w3.org/1999/xlink" version="1.1" width="664" height="867"><g><g transform="translate(597,14.3)"><polygon fill="#000000" points="0,0 4.2,11.2 11.8,2" transform="translate(-5.9,27.3)"/>
<rect fill="none" width="1" height="1" transform="translate(33.3,-0.5)"/>
<g><g>
<rect x="0" y="0" width="28.3" height="28.3" opacity="0"/>
<path fill="none" stroke="#000000" stroke-width="1" d="M28.3,0C16.7,2.2,7,13.4,0,28.3"/>
</g></g><rect stroke="none" stroke-width="0" fill="#FFFFFF" x="0" y="0" width="0" height="0"/><path stroke="#000000" fill="none"/><text font-family="OpenSansCondensedLight" font-size="14pt" fill="black" transform="translate(0,0)"/><rect stroke-width="0" fill="none" width="1" height="1" transform="translate(33.3,-0.5)"/><text font-family="OpenSansCondensedLight" font-size="14pt" fill="black" text-decoration="none" transform="translate(33.3,-0.5)"><tspan x="0" y="6.8">500</tspan></text><path stroke="#000000" fill="none" transform="translate(33.3,-0.5)"/></g><g transform="translate(251,42.7)"><g><g>
<path d="M99,0H0v99h99V0L99,0z" stroke="#000000" stroke-dasharray="none" fill="#FFFFFF"/>
<rect x="4.3" y="4.5" width="90.3" height="90" fill="none"/>
<circle fill="none" cx="49.5" cy="0" r="0.1"/>
<circle fill="none" cx="74" cy="0" r="0.1"/>
<circle fill="none" cx="99" cy="25" r="0.1"/>
<circle fill="none" cx="99" cy="49.5" r="0.1"/>
<circle fill="none" cx="99" cy="74" r="0.1"/>
<circle fill="none" cx="74" cy="99" r="0.1"/>
<circle fill="none" cx="49.5" cy="99" r="0.1"/>
<circle fill="none" cx="25" cy="99" r="0.1"/>
<circle fill="none" cx="0" cy="74" r="0.1"/>
<circle fill="none" cx="0" cy="49.5" r="0.1"/>
<circle fill="none" cx="0" cy="25" r="0.1"/>
<circle fill="none" cx="25" cy="0" r="0.1"/>
</g></g><rect stroke="none" stroke-width="0" fill="#FFFFFF" x="0" y="0" width="0" height="0" transform="translate(-0.1,24.9)"/><path stroke="#000000" fill="none" d=""/><text font-family="OpenSansCondensedLight" font-size="14pt" fill="black" transform="translate(-0.1,24.9)"/><rect stroke-width="0" fill="none" width="90.3" height="90" transform="translate(4.3,4.5)"/><text font-family="OpenSansCondensedLight" font-size="14pt" fill="black" transform="translate(4.3,4.5)" text-anchor="middle"><tspan x="45.2" y="30.3">PROCESSING</tspan><tspan x="45.2" y="51.3">UNITS</tspan><tspan x="45.2" y="72.3">502</tspan></text><path stroke="#000000" fill="none" transform="translate(4.3,4.5)" d="M 31.2 74 59.2 74"/></g><g transform="translate(44,282.5)"><g><g>
<path d="M94.5,0H0v94.5h94.5V0L94.5,0z" stroke="#000000" stroke-dasharray="none" fill="#FFFFFF"/>
<rect x="4.1" y="4.3" width="86.2" height="85.9" fill="none"/>
<circle fill="none" cx="47.2" cy="0" r="0.1"/>
<circle fill="none" cx="70.7" cy="0" r="0.1"/>
<circle fill="none" cx="94.5" cy="23.8" r="0.1"/>
<circle fill="none" cx="94.5" cy="47.2" r="0.1"/>
<circle fill="none" cx="94.5" cy="70.7" r="0.1"/>
<circle fill="none" cx="70.7" cy="94.5" r="0.1"/>
<circle fill="none" cx="47.2" cy="94.5" r="0.1"/>
<circle fill="none" cx="23.8" cy="94.5" r="0.1"/>
<circle fill="none" cx="0" cy="70.7" r="0.1"/>
<circle fill="none" cx="0" cy="47.2" r="0.1"/>
<circle fill="none" cx="0" cy="23.8" r="0.1"/>
<circle fill="none" cx="23.8" cy="0" r="0.1"/>
</g></g><rect stroke="none" stroke-width="0" fill="#FFFFFF" x="0" y="0" width="0" height="0" transform="translate(47.1,-0.1)"/><path stroke="#000000" fill="none" d=""/><text font-family="OpenSansCondensedLight" font-size="14pt" fill="black" transform="translate(47.1,-0.1)"/><rect stroke-width="0" fill="none" width="86.2" height="85.9" transform="translate(4.1,4.3)"/><text font-family="OpenSansCondensedLight" font-size="14pt" fill="black" transform="translate(4.1,4.3)" text-anchor="middle"><tspan x="43.1" y="28.2">INPUT</tspan><tspan x="43.1" y="49.2">DEVICES</tspan><tspan x="43.1" y="70.2">504</tspan></text><path stroke="#000000" fill="none" transform="translate(4.1,4.3)" d="M 29.1 72 57.1 72"/></g><g transform="translate(205.5,200)"><g><g>
<path d="M240,0H0v303h240V0L240,0z" stroke="#000000" stroke-dasharray="none" fill="#FFFFFF"/>
<rect x="10.5" y="13.8" width="219" height="275.4" fill="none"/>
<circle fill="none" cx="120" cy="0" r="0.1"/>
<circle fill="none" cx="179.5" cy="0" r="0.1"/>
<circle fill="none" cx="240" cy="76.4" r="0.1"/>
<circle fill="none" cx="240" cy="151.5" r="0.1"/>
<circle fill="none" cx="240" cy="226.6" r="0.1"/>
<circle fill="none" cx="179.5" cy="303" r="0.1"/>
<circle fill="none" cx="120" cy="303" r="0.1"/>
<circle fill="none" cx="60.5" cy="303" r="0.1"/>
<circle fill="none" cx="0" cy="226.6" r="0.1"/>
<circle fill="none" cx="0" cy="151.5" r="0.1"/>
<circle fill="none" cx="0" cy="76.4" r="0.1"/>
<circle fill="none" cx="60.5" cy="0" r="0.1"/>
</g></g><rect stroke="none" stroke-width="0" fill="#FFFFFF" x="0" y="0" width="0" height="0" transform="translate(-0.1,76.3)"/><path stroke="#000000" fill="none" d=""/><text font-family="OpenSansCondensedLight" font-size="14pt" fill="black" transform="translate(-0.1,76.3)"/><rect stroke-width="0" fill="none" width="219" height="275.4" transform="translate(10.5,13.8)"/><text font-family="OpenSansCondensedLight" font-size="14pt" fill="black" transform="translate(10.5,13.8)" text-anchor="middle"><tspan x="109.5" y="144">MEMORY 506</tspan></text><path stroke="#000000" fill="none" transform="translate(10.5,13.8)" d="M 139.3 146 167.3 146"/></g><g transform="translate(552.5,234)"><g><g>
<path d="M94.5,0H0v94.5h94.5V0L94.5,0z" stroke="#000000" stroke-dasharray="none" fill="#FFFFFF"/>
<rect x="4.1" y="4.3" width="86.2" height="85.9" fill="none"/>
<circle fill="none" cx="47.2" cy="0" r="0.1"/>
<circle fill="none" cx="70.7" cy="0" r="0.1"/>
<circle fill="none" cx="94.5" cy="23.8" r="0.1"/>
<circle fill="none" cx="94.5" cy="47.2" r="0.1"/>
<circle fill="none" cx="94.5" cy="70.7" r="0.1"/>
<circle fill="none" cx="70.7" cy="94.5" r="0.1"/>
<circle fill="none" cx="47.2" cy="94.5" r="0.1"/>
<circle fill="none" cx="23.8" cy="94.5" r="0.1"/>
<circle fill="none" cx="0" cy="70.7" r="0.1"/>
<circle fill="none" cx="0" cy="47.2" r="0.1"/>
<circle fill="none" cx="0" cy="23.8" r="0.1"/>
<circle fill="none" cx="23.8" cy="0" r="0.1"/>
</g></g><rect stroke="none" stroke-width="0" fill="#FFFFFF" x="0" y="0" width="0" height="0" transform="translate(23.7,-0.1)"/><path stroke="#000000" fill="none" d=""/><text font-family="OpenSansCondensedLight" font-size="14pt" fill="black" transform="translate(23.7,-0.1)"/><rect stroke-width="0" fill="none" width="86.2" height="85.9" transform="translate(4.1,4.3)"/><text font-family="OpenSansCondensedLight" font-size="14pt" fill="black" transform="translate(4.1,4.3)" text-anchor="middle"><tspan x="43.1" y="28.2">OUTPUT</tspan><tspan x="43.1" y="49.2">DEVICES</tspan><tspan x="43.1" y="70.2">508</tspan></text><path stroke="#000000" fill="none" transform="translate(4.1,4.3)" d="M 29.1 72 57.1 72"/></g><g transform="translate(251,610)"><g><g>
<path d="M94.5,0H0v94.5h94.5V0L94.5,0z" stroke="#000000" stroke-dasharray="none" fill="#FFFFFF"/>
<rect x="4.1" y="4.3" width="86.2" height="85.9" fill="none"/>
<circle fill="none" cx="47.2" cy="0" r="0.1"/>
<circle fill="none" cx="70.7" cy="0" r="0.1"/>
<circle fill="none" cx="94.5" cy="23.8" r="0.1"/>
<circle fill="none" cx="94.5" cy="47.2" r="0.1"/>
<circle fill="none" cx="94.5" cy="70.7" r="0.1"/>
<circle fill="none" cx="70.7" cy="94.5" r="0.1"/>
<circle fill="none" cx="47.2" cy="94.5" r="0.1"/>
<circle fill="none" cx="23.8" cy="94.5" r="0.1"/>
<circle fill="none" cx="0" cy="70.7" r="0.1"/>
<circle fill="none" cx="0" cy="47.2" r="0.1"/>
<circle fill="none" cx="0" cy="23.8" r="0.1"/>
<circle fill="none" cx="23.8" cy="0" r="0.1"/>
</g></g><rect stroke="none" stroke-width="0" fill="#FFFFFF" x="0" y="0" width="0" height="0" transform="translate(47.1,94.4)"/><path stroke="#000000" fill="none" d=""/><text font-family="OpenSansCondensedLight" font-size="14pt" fill="black" transform="translate(47.1,94.4)"/><rect stroke-width="0" fill="none" width="86.2" height="85.9" transform="translate(4.1,4.3)"/><text font-family="OpenSansCondensedLight" font-size="14pt" fill="black" transform="translate(4.1,4.3)" text-anchor="middle"><tspan x="43.1" y="28.2">STORAGE</tspan><tspan x="43.1" y="49.2">DEVICES</tspan><tspan x="43.1" y="70.2">510</tspan></text><path stroke="#000000" fill="none" transform="translate(4.1,4.3)" d="M 29.1 72 57.1 72"/></g><g transform="translate(530.9,377)"><g><g>
<path d="M94.5,0H0v94.5h94.5V0L94.5,0z" stroke="#000000" stroke-dasharray="none" fill="#FFFFFF"/>
<rect x="4.1" y="4.3" width="86.2" height="85.9" fill="none"/>
<circle fill="none" cx="47.2" cy="0" r="0.1"/>
<circle fill="none" cx="70.7" cy="0" r="0.1"/>
<circle fill="none" cx="94.5" cy="23.8" r="0.1"/>
<circle fill="none" cx="94.5" cy="47.2" r="0.1"/>
<circle fill="none" cx="94.5" cy="70.7" r="0.1"/>
<circle fill="none" cx="70.7" cy="94.5" r="0.1"/>
<circle fill="none" cx="47.2" cy="94.5" r="0.1"/>
<circle fill="none" cx="23.8" cy="94.5" r="0.1"/>
<circle fill="none" cx="0" cy="70.7" r="0.1"/>
<circle fill="none" cx="0" cy="47.2" r="0.1"/>
<circle fill="none" cx="0" cy="23.8" r="0.1"/>
<circle fill="none" cx="23.8" cy="0" r="0.1"/>
</g></g><rect stroke="none" stroke-width="0" fill="#FFFFFF" x="0" y="0" width="0" height="0" transform="translate(47.1,94.4)"/><path stroke="#000000" fill="none" d=""/><text font-family="OpenSansCondensedLight" font-size="14pt" fill="black" transform="translate(47.1,94.4)"/><rect stroke-width="0" fill="none" width="86.2" height="85.9" transform="translate(4.1,4.3)"/><text font-family="OpenSansCondensedLight" font-size="14pt" fill="black" transform="translate(4.1,4.3)" text-anchor="middle"><tspan x="43.1" y="28.2">NETWORK</tspan><tspan x="43.1" y="49.2">INTERFACE</tspan><tspan x="43.1" y="70.2">512</tspan></text><path stroke="#000000" fill="none" transform="translate(4.1,4.3)" d="M 29.1 72 57.1 72"/></g><g><path stroke="black" stroke-dasharray="none" d="M 138 351 197 351" fill="none"/><path fill="black" stroke="black" d="" transform="translate(138,351) scale(1,1) rotate(0)"/><path fill="black" stroke="black" d="M 8 0 L 0 4 L 8 8 z" transform="translate(205,355) scale(1,1) rotate(-180)"/><g><g label-idx="0" cursor="move" transform="translate(167.5, 351)"><rect fill="white" rx="3" ry="3" x="0" y="0" width="0" height="0"/><text text-anchor="middle" font-size="14pt" font-family="OpenSansCondensedLight" y="0.8em" display="none" xml:space="preserve" transform="translate(0,0)"/></g></g></g><g><path stroke="black" stroke-dasharray="none" d="M 445 281 545 281" fill="none"/><path fill="black" stroke="black" d="" transform="translate(445,281) scale(1,1) rotate(0)"/><path fill="black" stroke="black" d="M 8 0 L 0 4 L 8 8 z" transform="translate(553,285) scale(1,1) rotate(-180)"/><g><g label-idx="0" cursor="move" transform="translate(495, 281)"><rect fill="white" rx="3" ry="3" x="0" y="0" width="0" height="0"/><text text-anchor="middle" font-size="14pt" font-family="OpenSansCondensedLight" y="0.8em" display="none" xml:space="preserve" transform="translate(0,0)"/></g></g></g><g><path stroke="black" stroke-dasharray="none" d="M 272 142 272 188" fill="none"/><path fill="black" stroke="black" d="" transform="translate(272,142) scale(1,1) rotate(-270)"/><path fill="black" stroke="black" d="M 8 0 L 0 4 L 8 8 z" transform="translate(268,196) scale(1,1) rotate(-90)"/><g><g label-idx="0" cursor="move" transform="translate(272, 165)"><rect fill="white" rx="3" ry="3" x="0" y="0" width="0" height="0"/><text text-anchor="middle" font-size="14pt" font-family="OpenSansCondensedLight" y="0.8em" display="none" xml:space="preserve" transform="translate(0,0)"/></g></g></g><g><path stroke="black" stroke-dasharray="none" d="M 323 503 323 598" fill="none"/><path fill="black" stroke="black" d="" transform="translate(323,503) scale(1,1) rotate(-270)"/><path fill="black" stroke="black" d="M 8 0 L 0 4 L 8 8 z" transform="translate(319,606) scale(1,1) rotate(-90)"/><g><g label-idx="0" cursor="move" transform="translate(323, 550.5)"><rect fill="white" rx="3" ry="3" x="0" y="0" width="0" height="0"/><text text-anchor="middle" font-size="14pt" font-family="OpenSansCondensedLight" y="0.8em" display="none" xml:space="preserve" transform="translate(0,0)"/></g></g></g><g><path stroke="black" stroke-dasharray="none" d="M 274 610 274 517" fill="none"/><path fill="black" stroke="black" d="" transform="translate(274,610) scale(1,1) rotate(-90)"/><path fill="black" stroke="black" d="M 8 0 L 0 4 L 8 8 z" transform="translate(278,509) scale(1,1) rotate(-270)"/><g><g label-idx="0" cursor="move" transform="translate(274, 563.5)"><rect fill="white" rx="3" ry="3" x="0" y="0" width="0" height="0"/><text text-anchor="middle" font-size="14pt" font-family="OpenSansCondensedLight" y="0.8em" display="none" xml:space="preserve" transform="translate(0,0)"/></g></g></g><g><path stroke="black" stroke-dasharray="none" d="M 321 200 321 149" fill="none"/><path fill="black" stroke="black" d="" transform="translate(321,200) scale(1,1) rotate(-90)"/><path fill="black" stroke="black" d="M 8 0 L 0 4 L 8 8 z" transform="translate(325,141) scale(1,1) rotate(-270)"/><g><g label-idx="0" cursor="move" transform="translate(321, 174.5)"><rect fill="white" rx="3" ry="3" x="0" y="0" width="0" height="0"/><text text-anchor="middle" font-size="14pt" font-family="OpenSansCondensedLight" y="0.8em" display="none" xml:space="preserve" transform="translate(0,0)"/></g></g></g><g><path stroke="black" stroke-dasharray="none" d="M 445 423 514 423" fill="none"/><path fill="black" stroke="black" d="" transform="translate(445,423) scale(1,1) rotate(0)"/><path fill="black" stroke="black" d="M 8 0 L 0 4 L 8 8 z" transform="translate(522,427) scale(1,1) rotate(-180)"/><g><g label-idx="0" cursor="move" transform="translate(479.5, 423)"><rect fill="white" rx="3" ry="3" x="0" y="0" width="0" height="0"/><text text-anchor="middle" font-size="14pt" font-family="OpenSansCondensedLight" y="0.8em" display="none" xml:space="preserve" transform="translate(0,0)"/></g></g></g><g><path stroke="black" stroke-dasharray="none" d="M 531 447 457 447" fill="none"/><path fill="black" stroke="black" d="" transform="translate(531,447) scale(1,1) rotate(-180)"/><path fill="black" stroke="black" d="M 8 0 L 0 4 L 8 8 z" transform="translate(449,443) scale(1,1) rotate(0)"/><g><g label-idx="0" cursor="move" transform="translate(494, 447)"><rect fill="white" rx="3" ry="3" x="0" y="0" width="0" height="0"/><text text-anchor="middle" font-size="14pt" font-family="OpenSansCondensedLight" y="0.8em" display="none" xml:space="preserve" transform="translate(0,0)"/></g></g></g><g transform="translate(233.3,442)"><g><g>
<path d="M187,0H0v41h187V0L187,0z" stroke="#000000" stroke-dasharray="none" fill="#FFFFFF"/>
<rect x="8.2" y="1.9" width="170.7" height="37.3" fill="none"/>
<circle fill="none" cx="93.5" cy="0" r="0.1"/>
<circle fill="none" cx="139.8" cy="0" r="0.1"/>
<circle fill="none" cx="187" cy="10.3" r="0.1"/>
<circle fill="none" cx="187" cy="20.5" r="0.1"/>
<circle fill="none" cx="187" cy="30.7" r="0.1"/>
<circle fill="none" cx="139.8" cy="41" r="0.1"/>
<circle fill="none" cx="93.5" cy="41" r="0.1"/>
<circle fill="none" cx="47.2" cy="41" r="0.1"/>
<circle fill="none" cx="0" cy="30.7" r="0.1"/>
<circle fill="none" cx="0" cy="20.5" r="0.1"/>
<circle fill="none" cx="0" cy="10.3" r="0.1"/>
<circle fill="none" cx="47.2" cy="0" r="0.1"/>
</g></g><rect stroke="none" stroke-width="0" fill="#FFFFFF" x="0" y="0" width="0" height="0" transform="translate(186.9,20.4)"/><path stroke="#000000" fill="none" d=""/><text font-family="OpenSansCondensedLight" font-size="14pt" fill="black" transform="translate(186.9,20.4)"/><rect stroke-width="0" fill="none" width="170.7" height="37.3" transform="translate(8.2,1.9)"/><text font-family="OpenSansCondensedLight" font-size="14pt" fill="black" transform="translate(8.2,1.9)" text-anchor="middle"><tspan x="85.3" y="24.9"> 520</tspan></text><path stroke="#000000" fill="none" transform="translate(8.2,1.9)" d="M 71.3 27 99.3 27"/></g><g transform="translate(233.3,215)"><g><g>
<path d="M184,0H0v47h184V0L184,0z" stroke="#000000" stroke-dasharray="none" fill="#FFFFFF"/>
<rect x="8" y="2.1" width="167.9" height="42.7" fill="none"/>
<circle fill="none" cx="92" cy="0" r="0.1"/>
<circle fill="none" cx="137.6" cy="0" r="0.1"/>
<circle fill="none" cx="184" cy="11.9" r="0.1"/>
<circle fill="none" cx="184" cy="23.5" r="0.1"/>
<circle fill="none" cx="184" cy="35.1" r="0.1"/>
<circle fill="none" cx="137.6" cy="47" r="0.1"/>
<circle fill="none" cx="92" cy="47" r="0.1"/>
<circle fill="none" cx="46.4" cy="47" r="0.1"/>
<circle fill="none" cx="0" cy="35.1" r="0.1"/>
<circle fill="none" cx="0" cy="23.5" r="0.1"/>
<circle fill="none" cx="0" cy="11.9" r="0.1"/>
<circle fill="none" cx="46.4" cy="0" r="0.1"/>
</g></g><rect stroke="none" stroke-width="0" fill="#FFFFFF" x="0" y="0" width="0" height="0" transform="translate(183.9,23.4)"/><path stroke="#000000" fill="none" d=""/><text font-family="OpenSansCondensedLight" font-size="14pt" fill="black" transform="translate(183.9,23.4)"/><rect stroke-width="0" fill="none" width="167.9" height="42.7" transform="translate(8,2.1)"/><text font-family="OpenSansCondensedLight" font-size="14pt" fill="black" transform="translate(8,2.1)" text-anchor="middle"><tspan x="84" y="27.7"> 514</tspan></text><path stroke="#000000" fill="none" transform="translate(8,2.1)" d="M 70 30 98 30"/></g><g transform="translate(231.4,279.6)"><g><g>
<path d="M187,0H0v48h187V0L187,0z" stroke="#000000" stroke-dasharray="none" fill="#FFFFFF"/>
<rect x="8.2" y="2.2" width="170.7" height="43.6" fill="none"/>
<circle fill="none" cx="93.5" cy="0" r="0.1"/>
<circle fill="none" cx="139.8" cy="0" r="0.1"/>
<circle fill="none" cx="187" cy="12.1" r="0.1"/>
<circle fill="none" cx="187" cy="24" r="0.1"/>
<circle fill="none" cx="187" cy="35.9" r="0.1"/>
<circle fill="none" cx="139.8" cy="48" r="0.1"/>
<circle fill="none" cx="93.5" cy="48" r="0.1"/>
<circle fill="none" cx="47.2" cy="48" r="0.1"/>
<circle fill="none" cx="0" cy="35.9" r="0.1"/>
<circle fill="none" cx="0" cy="24" r="0.1"/>
<circle fill="none" cx="0" cy="12.1" r="0.1"/>
<circle fill="none" cx="47.2" cy="0" r="0.1"/>
</g></g><rect stroke="none" stroke-width="0" fill="#FFFFFF" x="0" y="0" width="0" height="0" transform="translate(186.9,23.9)"/><path stroke="#000000" fill="none" d=""/><text font-family="OpenSansCondensedLight" font-size="14pt" fill="black" transform="translate(186.9,23.9)"/><rect stroke-width="0" fill="none" width="170.7" height="43.6" transform="translate(8.2,2.2)"/><text font-family="OpenSansCondensedLight" font-size="14pt" fill="black" transform="translate(8.2,2.2)" text-anchor="middle"><tspan x="85.3" y="28.1"> 516</tspan></text><path stroke="#000000" fill="none" transform="translate(8.2,2.2)" d="M 71.3 30 99.3 30"/></g><g transform="translate(233.3,377)"><g><g>
<path d="M186,0H0v49h186V0L186,0z" stroke="#000000" stroke-dasharray="none" fill="#FFFFFF"/>
<rect x="8.1" y="2.2" width="169.7" height="44.5" fill="none"/>
<circle fill="none" cx="93" cy="0" r="0.1"/>
<circle fill="none" cx="139.1" cy="0" r="0.1"/>
<circle fill="none" cx="186" cy="12.4" r="0.1"/>
<circle fill="none" cx="186" cy="24.5" r="0.1"/>
<circle fill="none" cx="186" cy="36.6" r="0.1"/>
<circle fill="none" cx="139.1" cy="49" r="0.1"/>
<circle fill="none" cx="93" cy="49" r="0.1"/>
<circle fill="none" cx="46.9" cy="49" r="0.1"/>
<circle fill="none" cx="0" cy="36.6" r="0.1"/>
<circle fill="none" cx="0" cy="24.5" r="0.1"/>
<circle fill="none" cx="0" cy="12.4" r="0.1"/>
<circle fill="none" cx="46.9" cy="0" r="0.1"/>
</g></g><rect stroke="none" stroke-width="0" fill="#FFFFFF" x="0" y="0" width="0" height="0" transform="translate(185.9,24.4)"/><path stroke="#000000" fill="none" d=""/><text font-family="OpenSansCondensedLight" font-size="14pt" fill="black" transform="translate(185.9,24.4)"/><rect stroke-width="0" fill="none" width="169.7" height="44.5" transform="translate(8.1,2.2)"/><text font-family="OpenSansCondensedLight" font-size="14pt" fill="black" transform="translate(8.1,2.2)" text-anchor="middle"><tspan x="84.9" y="28.6"> 518</tspan></text><path stroke="#000000" fill="none" transform="translate(8.1,2.2)" d="M 70.9 31 98.9 31"/></g></g><defs/></svg>